<?xml version="1.0" encoding="UTF-8" standalone="no"?>
<!-- Created with Inkscape (http://www.inkscape.org/) -->

<svg
   xmlns:dc="http://purl.org/dc/elements/1.1/"
   xmlns:cc="http://creativecommons.org/ns#"
   xmlns:rdf="http://www.w3.org/1999/02/22-rdf-syntax-ns#"
   xmlns:svg="http://www.w3.org/2000/svg"
   xmlns="http://www.w3.org/2000/svg"
   xmlns:sodipodi="http://sodipodi.sourceforge.net/DTD/sodipodi-0.dtd"
   xmlns:inkscape="http://www.inkscape.org/namespaces/inkscape"
   width="556.15002"
   height="247.2"
   id="svg3010"
   version="1.1"
   inkscape:version="0.48.5 r10040"
   sodipodi:docname="familyst-white.svg"
   inkscape:export-filename="C:\Users\yotamberk\Desktop\designing\Elior\finals\familyst-white.png"
   inkscape:export-xdpi="90"
   inkscape:export-ydpi="90">
  <defs
     id="defs3012" />
  <sodipodi:namedview
     id="base"
     pagecolor="#ffffff"
     bordercolor="#666666"
     borderopacity="1.0"
     inkscape:pageopacity="0.0"
     inkscape:pageshadow="2"
     inkscape:zoom="0.35"
     inkscape:cx="234.93416"
     inkscape:cy="5.9586382"
     inkscape:document-units="px"
     inkscape:current-layer="layer1"
     showgrid="false"
     fit-margin-top="0"
     fit-margin-left="0"
     fit-margin-right="0"
     fit-margin-bottom="0"
     inkscape:window-width="463"
     inkscape:window-height="423"
     inkscape:window-x="26"
     inkscape:window-y="26"
     inkscape:window-maximized="0" />
  <metadata
     id="metadata3015">
    <rdf:RDF>
      <cc:Work
         rdf:about="">
        <dc:format>image/svg+xml</dc:format>
        <dc:type
           rdf:resource="http://purl.org/dc/dcmitype/StillImage" />
        <dc:title></dc:title>
      </cc:Work>
    </rdf:RDF>
  </metadata>
  <g
     inkscape:label="Layer 1"
     inkscape:groupmode="layer"
     id="layer1"
     transform="translate(-140.06584,-291.12083)">
    <path
       style="fill:#ffffff;fill-opacity:1;stroke:none"
       d="m 308.01197,337.58392 16.63778,2.9438 c 3.66074,-0.7806 7.66151,-2.12032 11.21936,-5.92349 2.82269,-3.01733 7.07415,-9.43402 -9.07651,-11.21937 -51.69243,-5.71425 -114.64154,-24.14777 -132.56128,35.88761 -1.76041,5.89779 8.53438,3.70216 9.19906,2.05619 12.9942,-32.17783 33.70284,-31.08652 54.07651,-30.08665 l 27.14286,2.85714 c -12.94444,5.74516 -21.66522,27.9157 -28.57143,57.14286 -14.16355,1.20361 -33.2493,-0.79711 -42.14286,4.28571 -4.02998,2.3032 -12.13189,12.11052 2.56128,10.16588 10.50364,-1.39016 19.62548,-2.0017 34.58158,-3.73731 0.40533,5.48137 -6.58268,23.94016 -15.14792,36.33361 -11.96689,17.31547 -27.5897,26.83525 -52.96177,23.37053 -23.56304,-3.21769 -30.92381,-20.11087 -24.28666,-33.18043 1.08682,-2.14012 3.5097,-2.50933 5.04428,-4.63338 7.73988,-10.71294 -4.20199,-13.67454 -8.91062,-8.73732 -18.62686,19.53112 -19.37361,52.92913 14.87744,63.06636 13.91135,4.11731 45.35213,-0.14416 59.40302,-10.95415 21.48349,-16.52822 32.98777,-37.58047 40.55366,-65.26522 l 21.63777,-0.41842 c 10.18264,-0.19691 7.09921,-10.29586 3.57143,-10.29586 -7.14285,0 -20.92349,0 -20.92349,0 8.03216,-19.36301 9.47855,-54.51131 34.07651,-53.65809 z"
       id="path2996"
       inkscape:connector-curvature="0"
       sodipodi:nodetypes="ccsssscccsscssssssscsscc" />
    <path
       style="fill:#ffffff;fill-opacity:1;stroke:none"
       d="m 322.43546,408.93786 c -6.45393,0.27817 -13.88062,2.70659 -21.84375,9.28125 -19.30355,18.44365 -23.01353,36.67641 -16.5625,52.875 6.75216,16.95472 30.49082,0.31198 32.09375,-9.3125 0.93481,12.88214 5.6659,20.83873 18.34375,13.4375 5.7356,-3.3484 9.8379,-8.09497 12.6875,-12.75 2.63499,-4.30446 -3.16261,-9.89841 -6.65625,-6.3125 -2.80789,2.88204 -3.98298,4.1933 -6,6.15625 -1.499,1.48123 -1.96387,0.80017 -1.78125,-1.25 3.13862,-14.58333 6.19202,-29.16667 17.6875,-43.75 2.23375,0.43428 2.79532,-10.31848 -6.625,-7.5 l -5.34375,2.6875 c -4.07831,-1.97304 -9.54607,-3.84067 -16,-3.5625 z m -2.15625,12.4375 c 2.79307,-0.031 5.26615,0.65386 6,1.3125 1.40459,1.26065 1.97773,1.67829 0.875,3.96875 -7.11231,14.77285 -14.79546,29.77039 -25.5,35.125 -1.4301,0.71536 -1.55626,0.89255 -2.15625,-0.84375 -0.58846,-1.70294 -5.61357,-24.73532 14.375,-37.84375 1.87576,-1.23011 4.23386,-1.69466 6.40625,-1.71875 z"
       id="path2998"
       inkscape:connector-curvature="0"
       sodipodi:nodetypes="scscssscccccssssssss" />
    <path
       style="fill:#ffffff;fill-opacity:1;stroke:none"
       d="m 351.53135,472.27464 c -2.26526,6.89473 12.82224,8.88053 16.16244,0.88388 7.39772,-17.71061 11.48189,-35.77063 26.02917,-47.79718 0.99483,-0.82245 3.91555,-2.69025 3.89659,-0.81641 -0.15056,14.88619 -10.07918,31.13036 -13.76331,45.07806 -3.29668,12.48081 12.76426,10.81229 16.54124,2.65165 7.2163,-15.59172 11.02464,-33.20653 25.00127,-45.45686 3.72204,-3.26232 7.17606,-6.02891 4.79823,1.51522 -4.63714,14.71226 -14.79822,33.48425 -8.5863,45.07806 4.32085,8.06436 12.09553,5.27518 17.04633,2.14658 4.55401,-2.87785 9.95923,-6.65837 11.86929,-10.98542 4.12868,-9.35308 -1.6778,-10.33862 -5.17703,-9.21763 -1.74609,1.11347 -2.30978,1.33305 -5.42957,4.92449 -1.01918,1.17326 -5.1747,3.90002 -3.6618,-1.89403 3.19665,-12.24249 8.74148,-21.06951 10.35406,-31.94608 1.31403,-8.86288 3.02477,-21.48657 -16.66752,-16.54125 -4.81114,1.11394 -8.9797,5.44077 -13.13198,9.84899 -2.30034,2.37285 -3.46816,1.60799 -3.03046,-0.50508 1.06597,-5.1461 -8.12818,-19.69317 -26.76904,-2.27284 -3.48927,3.91608 -2.94497,1.47446 -2.83657,0.87754 0.78765,-4.33738 -8.10623,-21.83457 -28.98324,6.44607 -2.47844,3.35737 -0.12912,10.75142 8.2075,5.42957 3.05816,-1.95224 2.37712,-9.2e-4 2.02029,1.13642 -4.3044,13.72 -8.60304,25.32565 -13.88959,41.41625 z"
       id="path3002"
       inkscape:connector-curvature="0"
       sodipodi:nodetypes="ssssssssssscsssccscsssss" />
    <path
       style="fill:#ffffff;fill-opacity:1;stroke:none"
       d="m 476.64975,411.59915 c 10.93161,-6.7327 14.94759,0.84168 11.25,7.49999 -7.59989,13.68527 -12.81158,27.57842 -15.89286,42.50001 -0.36866,1.7853 1.64783,2.4328 4.01786,-0.625 3.14566,-4.05852 2.81641,-4.46876 4.73214,-5.89286 5.335,-3.96592 10.43611,3.24222 6.69643,8.21429 -4.51117,5.99779 -8.72273,9.08723 -12.05357,11.875 -6.56348,5.49336 -18.57171,5.08375 -19.73215,-8.03572 -0.80258,-9.07361 4.13278,-21.7282 7.94643,-30.17857 1.2068,-2.67406 1.14537,-3.4205 -1.07143,-3.57143 -6.58952,-0.44865 -3.68394,-6.90256 -1.78571,-8.83929 7.43939,-7.59024 9.43727,-8.97047 15.89286,-12.94642 z"
       id="path3004"
       inkscape:connector-curvature="0"
       sodipodi:nodetypes="ssssssssssss" />
    <path
       style="fill:#ffffff;fill-opacity:1;stroke:none"
       d="m 498.12974,374.79492 c 2.97619,-2.9737 13.29485,0.57819 8.08122,6.43972 -7.11336,7.99734 -12.57885,13.87424 -18.46592,22.84573 -1.47809,2.2525 -5.8849,3.57557 -7.48238,-1.00118 -1.39281,-3.99038 -0.75121,-6.55001 0.18941,-8.20749 3.91119,-6.89194 10.57101,-12.97606 17.67767,-20.07678 z"
       id="path3006"
       inkscape:connector-curvature="0"
       sodipodi:nodetypes="ssssss" />
    <path
       style="fill:#ffffff;fill-opacity:1;stroke:none"
       d="m 517.00689,456.95629 c -5.87437,9.31984 -6.56154,4.6149 -5.80357,-3.92857 2.40879,-27.1506 28.52344,-122.00627 74.01785,-142.67857 3.3268,-1.51167 9.72636,-0.46403 10.89286,2.32142 3.89467,9.29998 7.66413,6.34969 9.82143,3.03573 5.68958,-8.74011 0.89265,-18.05337 -1.25,-20.35715 -4.55847,-4.90127 -19.44838,-4.92174 -30.89286,4.82143 -48.96996,41.69024 -81.12084,137.80467 -81.42857,164.64285 -0.12698,11.07398 7.99111,16.77282 18.21429,11.78572 7.10055,-3.46381 12.24517,-9.45687 15.71428,-15 4.51557,-7.21523 -2.2232,-15.84771 -9.28571,-4.64286 z"
       id="path3008"
       inkscape:connector-curvature="0"
       sodipodi:nodetypes="sssssssssss" />
    <path
       style="fill:#ffffff;fill-opacity:1;stroke:none"
       d="m 561.35895,420.26249 c 4.68442,-6.34866 0.88867,-16.68124 -12.29078,-6.92095 -4.5658,3.38129 -9.95055,6.169 -14.34699,11.11475 -2.01246,2.2639 -4.5806,5.32044 1.07142,8.57143 0.88116,0.50684 1.72646,0.27632 0.71429,2.85714 -14.53499,37.0613 -1.73164,60.0957 28.21429,26.96429 -5.70211,22.21294 -12.16715,35.72756 -22.85715,47.32143 -17.2906,18.75258 -40.27638,12.67001 -44.82142,6.25 -3.06824,-4.33398 -4.22748,-11.86199 -1.78573,-15.53572 7.90174,-11.88852 -2.77099,-12.39424 -6.60713,-9.46428 -6.6335,5.06653 -20.73928,30.69535 6.07142,43.39285 12.28592,5.81859 27.21685,5.16976 46.34192,-7.85714 28.2393,-19.235 40.87002,-69.95594 55.80094,-107.14286 4.51689,-11.24977 -3.45342,-12.06401 -9.62491,-9.58157 -7.77058,3.12566 -8.07795,9.13915 -10.37509,14.22443 -6.69986,14.83174 -13.83461,24.05703 -22.5,33.92857 -2.86563,3.2645 -8.39481,7.72037 -6.78571,-2.5 2.72225,-17.29066 6.51772,-25.77916 13.78063,-35.62237 z"
       id="path3010"
       inkscape:connector-curvature="0"
       sodipodi:nodetypes="ssssscssssssssssss" />
    <path
       style="fill:#ffffff;fill-opacity:1;stroke:none"
       d="m 629.50689,423.74201 c 1.67645,-5.16117 -5.6071,-3.44164 -6.78572,-1.96429 -4.36182,5.46736 1.79626,11.03525 6.42857,16.78571 4.25567,5.2829 11.2394,18.97767 1.78572,31.07143 -5.87596,7.5169 -17.99256,11.92272 -30.71429,7.85715 -11.10882,-3.55012 -13.21169,-10.11814 -9.99999,-17.32143 2.01087,-4.51002 5.26818,-8.81452 9.28571,-11.07143 4.5254,-2.5422 10.92142,3.91941 6.07143,7.85714 -0.81606,2.09292 -4.41701,4.6058 -1.07143,8.03572 4.06087,4.16325 8.62372,2.75424 12.14286,0.35714 2.68077,-1.82603 3.49399,-5.76364 0,-14.28572 -4.98578,-12.16067 -21.60374,-23.12198 -3.39286,-37.85714 8.47747,-6.85945 20.25792,-5.16587 26.25,-1.25 3.6499,2.38523 3.9536,7.07223 1.96429,13.39286 -0.78885,2.50641 -0.98836,4.60205 -2.85714,6.60714 -3.72281,3.99434 -11.51509,0.80471 -10.35716,-4.28571 0.44126,-1.93983 0.75934,-2.41797 1.25001,-3.92857 z"
       id="path3012"
       inkscape:connector-curvature="0"
       sodipodi:nodetypes="ssssssscsssssssss" />
    <path
       style="fill:#ffffff;fill-opacity:1;stroke:none"
       d="m 662.84745,410.78026 c 3.57143,-7.76994 7.24096,-16.79753 11.34562,-22.73087 3.1653,-4.57549 5.66753,-7.19143 9.13779,-7.98342 8.94613,-2.04171 12.12145,1.62467 8.21428,8.21429 l -13.00508,21.93364 14.20278,-0.50507 c 2.01339,0.32903 6.51765,7.18456 0.33548,9.74746 -4.58506,1.6891 -11.77626,1.29328 -17.85714,1.78572 -5.20547,10.24192 -8.47972,22.61988 -10.31382,35.64929 -0.94929,6.7438 2.79255,7.62879 6.74239,4.35071 2.50785,-2.62428 3.80401,-4.44077 5.35714,-6.42858 5.97988,-7.82544 11.80325,0.78334 8.92857,6.42858 -3.82403,4.77684 -8.46546,10.00311 -14.28571,13.92857 -9.03468,6.09342 -17.90339,4.72669 -21.78572,-5.35715 -5.33106,-13.84674 2.03446,-28.25829 6.42857,-42.5 0.77737,-2.07365 0.32047,-2.98034 -0.35714,-2.85714 -9.97115,1.81292 -12.14268,-8.10288 -3.21428,-10.71428 z"
       id="path3014"
       inkscape:connector-curvature="0"
       sodipodi:nodetypes="csssccccscccsscssc" />
  </g>
</svg>
